<?xml version="1.0" encoding="UTF-8" standalone="no"?>
<svg xmlns:dc="http://purl.org/dc/elements/1.1/" xmlns:cc="http://creativecommons.org/ns#" xmlns:rdf="http://www.w3.org/1999/02/22-rdf-syntax-ns#" xmlns:svg="http://www.w3.org/2000/svg" xmlns="http://www.w3.org/2000/svg"
	width="800" height="800"
	viewBox="0 0 800 800" version="1.1">
	<metadata id="logoMetadata">
		<rdf:RDF>
			<cc:Work rdf:about="">
				<dc:format>image/svg+xml</dc:format>
				<dc:title>WattConsume Logo</dc:title>
				<dc:date>19 Mar 2019</dc:date>
				<dc:creator><cc:Agent><dc:title>tamsamani</dc:title></cc:Agent></dc:creator>
				<dc:rights><cc:Agent><dc:title>imelKit.net</dc:title></cc:Agent></dc:rights>
				<dc:publisher><cc:Agent><dc:title>imelKit inc</dc:title></cc:Agent></dc:publisher>
				<dc:identifier>wattConsumeLogo</dc:identifier>
				<dc:source>watt-consume.github.io</dc:source>
				<dc:language>en; ar</dc:language>
				<dc:subject>
					<rdf:Bag><rdf:li>logo</rdf:li><rdf:li>icon</rdf:li><rdf:li>watt</rdf:li><rdf:li>consumption</rdf:li><rdf:li>wattconsume</rdf:li><rdf:li>imelkit</rdf:li><rdf:li>tamsamani</rdf:li></rdf:Bag>
				</dc:subject>
				<dc:description>this logo for wattConsume project</dc:description>
				<cc:license rdf:resource="http://creativecommons.org/licenses/by/4.0/" />
			</cc:Work>
			<cc:License rdf:about="http://creativecommons.org/licenses/by/4.0/">
				<cc:permits rdf:resource="http://creativecommons.org/ns#Reproduction" />
				<cc:permits rdf:resource="http://creativecommons.org/ns#Distribution" />
				<cc:requires rdf:resource="http://creativecommons.org/ns#Notice" />
				<cc:requires rdf:resource="http://creativecommons.org/ns#Attribution" />
				<cc:permits rdf:resource="http://creativecommons.org/ns#DerivativeWorks" />
			</cc:License>
		</rdf:RDF>
	</metadata>
	<g id="logoLayer" transform="matrix(0.99660936,0,0,0.99660936,4.4675215,112.31404)">
		<path style="fill:#0084ff" id="logoLetterW" d="M -0.44220328,111.0669 217.21983,338.98766 257.5179,300.5034 336.6882,358.65397 540.77565,29.994122 415.72924,546.85237 297.01481,422.54349 219.82286,546.85242 Z" />
		<path style="fill:#ff6600" id="logoLetterC" d="m 572.91594,263.91204 158.5089,-73.13676 c 17.49236,-8.07106 38.25574,0.90248 46.32394,20.02036 8.06819,19.11788 0.41274,41.20399 -17.07964,49.27506 l -158.50889,73.13676 c -17.49236,8.07106 -38.25574,-0.90249 -46.32393,-20.02035 -8.06821,-19.11788 -0.41276,-41.204 17.07962,-49.27507 z m 216.30982,105.67097 c 3.3948,-14.97615 -5.30094,-30.52898 -19.33828,-34.66999 -14.05414,-4.13329 -28.18896,4.69686 -31.58509,19.71759 -12.35445,54.94287 -46.93123,99.12324 -94.87954,121.24681 -85.76148,39.57076 -187.73317,-4.49955 -227.2821,-98.21212 -39.5567,-93.73099 -1.95975,-202.19893 83.80172,-241.76969 47.93149,-22.11581 102.42507,-19.05491 149.53593,8.40639 12.88408,7.50899 28.6496,2.54292 35.21928,-11.10625 6.55283,-13.64142 1.41589,-30.77035 -11.46688,-38.323877 C 611.74174,59.030166 540.58397,55.040764 478.00537,83.914832 366.01374,135.58831 316.94139,277.20382 368.58873,399.58403 c 51.64734,122.3802 184.78867,179.92146 296.76348,128.25575 62.61227,-28.8896 107.74057,-86.57791 123.87355,-158.25677 z" />
		<path style="fill:#0184ff" id="outLetterW" d="M 410.54151,240.04106 540.77565,29.994132 460.48883,360.54061 Z" />
	</g>
</svg>